<svg width="18" height="17" viewBox="0 0 18 17" fill="none" xmlns="http://www.w3.org/2000/svg">
<path d="M17.4601 8.50002C17.4601 7.10327 17.1143 5.72825 16.4535 4.49768C15.7927 3.26712 14.8376 2.21931 13.6732 1.44778C12.5089 0.676244 11.1717 0.204992 9.78089 0.076086C8.39011 -0.0528201 6.98904 0.164631 5.70275 0.709029C4.41646 1.25343 3.28497 2.10783 2.40928 3.19599C1.53358 4.28414 0.940936 5.57218 0.68423 6.94514C0.427524 8.31809 0.514749 9.73325 0.938118 11.0643C1.36149 12.3953 2.10783 13.6008 3.11052 14.5732C4.67856 16.0955 6.77556 16.9509 8.96099 16.9596C11.1464 16.9684 13.2502 16.1298 14.8303 14.62C14.865 14.5972 14.8954 14.5686 14.9203 14.5354C15.7244 13.7494 16.3633 12.8106 16.7995 11.7741C17.2357 10.7377 17.4603 9.6245 17.4601 8.50002ZM9.00012 0.760018C10.4969 0.761148 11.9613 1.19626 13.2159 2.01266C14.4704 2.82906 15.4614 3.99171 16.0686 5.35979C16.6759 6.72788 16.8735 8.2427 16.6374 9.72077C16.4013 11.1988 15.7417 12.5768 14.7385 13.6876C14.3402 12.8984 13.7827 12.2004 13.1012 11.6375C12.4196 11.0745 11.6287 10.659 10.7785 10.417C11.4836 10.0227 12.0379 9.40558 12.3546 8.66243C12.6714 7.91929 12.7327 7.09207 12.5289 6.31036C12.3251 5.52864 11.8678 4.8366 11.2286 4.34265C10.5894 3.84869 9.80435 3.58073 8.99652 3.58073C8.18869 3.58073 7.40368 3.84869 6.76446 4.34265C6.12524 4.8366 5.66792 5.52864 5.46416 6.31036C5.26039 7.09207 5.32168 7.91929 5.63843 8.66243C5.95518 9.40558 6.50949 10.0227 7.21452 10.417C6.36405 10.659 5.57302 11.0747 4.8914 11.638C4.20979 12.2013 3.65243 12.8998 3.25452 13.6894C1.96383 12.2701 1.25219 10.4184 1.26012 8.50002C1.26012 6.44724 2.07558 4.47854 3.52712 3.02701C4.97865 1.57548 6.94735 0.760018 9.00012 0.760018ZM9.00012 10.165C8.42031 10.165 7.85354 9.99302 7.37152 9.67078C6.8895 9.34854 6.51391 8.89056 6.29227 8.35478C6.07064 7.81901 6.01292 7.22953 6.12643 6.66094C6.23994 6.09235 6.51957 5.57021 6.92993 5.1606C7.3403 4.75099 7.86295 4.47233 8.43175 4.35987C9.00054 4.24741 9.58992 4.30621 10.1253 4.52883C10.6607 4.75146 11.1179 5.12789 11.4393 5.61051C11.7606 6.09312 11.9316 6.66021 11.9305 7.24002C11.9286 8.01613 11.6191 8.75982 11.0698 9.30811C10.5205 9.85639 9.77623 10.1645 9.00012 10.165ZM3.80172 14.2312C4.25578 13.2335 4.98736 12.3875 5.90913 11.7943C6.83091 11.201 7.90394 10.8856 9.00012 10.8856C10.0963 10.8856 11.1693 11.201 12.0911 11.7943C13.0129 12.3875 13.7445 13.2335 14.1985 14.2312C12.7761 15.5245 10.9226 16.2412 9.00012 16.2412C7.07763 16.2412 5.22417 15.5245 3.80172 14.2312Z" fill="#3C3C3C"/>
</svg>
